<?xml version="1.0" encoding="UTF-8" standalone="no"?>
<!-- Created with Inkscape (http://www.inkscape.org/) -->

<svg
   version="1.1"
   id="svg2"
   xml:space="preserve"
   width="418.66666"
   height="418.66666"
   viewBox="0 0 418.66666 418.66666"
   sodipodi:docname="logo.svg"
   inkscape:export-filename="C:\Users\Pawel\Desktop\logo.png"
   inkscape:export-xdpi="234.80255"
   inkscape:export-ydpi="234.80255"
   inkscape:version="1.1.1 (3bf5ae0d25, 2021-09-20)"
   xmlns:inkscape="http://www.inkscape.org/namespaces/inkscape"
   xmlns:sodipodi="http://sodipodi.sourceforge.net/DTD/sodipodi-0.dtd"
   xmlns="http://www.w3.org/2000/svg"
   xmlns:svg="http://www.w3.org/2000/svg"><defs
     id="defs6"><clipPath
       clipPathUnits="userSpaceOnUse"
       id="clipPath18"><path
         d="M 0,500 H 500 V 0 H 0 Z"
         id="path16" /></clipPath><clipPath
       clipPathUnits="userSpaceOnUse"
       id="clipPath56"><path
         d="M 244.281,223.564 H 337.37 V 136.742 H 244.281 Z"
         id="path54" /></clipPath></defs><sodipodi:namedview
     id="namedview4"
     pagecolor="#505050"
     bordercolor="#ffffff"
     borderopacity="1"
     inkscape:pageshadow="0"
     inkscape:pageopacity="0"
     inkscape:pagecheckerboard="1"
     showgrid="false"
     fit-margin-top="0"
     fit-margin-left="0"
     fit-margin-right="0"
     fit-margin-bottom="0"
     inkscape:zoom="0.35849999"
     inkscape:cx="87.866111"
     inkscape:cy="235.70433"
     inkscape:window-width="1366"
     inkscape:window-height="705"
     inkscape:window-x="-8"
     inkscape:window-y="-8"
     inkscape:window-maximized="1"
     inkscape:current-layer="g8" /><g
     id="g8"
     inkscape:groupmode="layer"
     inkscape:label="book-2389229"
     transform="matrix(1.3333333,0,0,-1.3333333,-125.33333,541.33332)"><g
       id="g12"><g
         id="g14"
         clip-path="url(#clipPath18)"><g
           id="g20"
           transform="translate(408,249)"><path
             d="m 0,0 c 0,-86.709 -70.291,-157 -157,-157 -86.708,0 -157,70.291 -157,157 0,86.708 70.292,157 157,157 C -70.291,157 0,86.708 0,0"
             style="fill:#31b5ab;fill-opacity:1;fill-rule:nonzero;stroke:none"
             id="path22" /></g><g
           id="g24"
           transform="translate(343.001,211.1162)"><path
             d="m 0,0 -0.217,0.217 v 0.001 l -3.439,3.439 -1.791,1.791 -5.231,5.23 c -0.976,0.976 -2.264,1.462 -3.551,1.457 v 106.413 h -125.108 -32.436 V -70.504 h 32.436 52.104 l -1.466,-5.471 -3.274,-3.273 c -0.364,-0.364 -0.364,-0.961 0,-1.325 l 0.252,-0.252 0.293,-0.293 c 0.342,-0.342 0.903,-0.342 1.244,0 l 3.315,3.314 21.449,5.747 -0.07,0.072 c 0.076,0.042 0.141,0.105 0.215,0.155 0.029,0.018 0.056,0.042 0.086,0.062 0.07,0.053 0.148,0.09 0.211,0.154 l 1.111,1.11 h 49.638 v 49.638 l 0.016,0.016 13.996,13.996 0.001,0.001 L 0,-6.637 C 1.825,-4.812 1.825,-1.825 0,0"
             style="fill:#229386;fill-opacity:1;fill-rule:nonzero;stroke:none"
             id="path26" /></g><path
           d="m 196.664,147.612 h -32.436 v 189.052 h 32.436 z"
           style="fill:#85796f;fill-opacity:1;fill-rule:nonzero;stroke:none"
           id="path28" /><path
           d="M 321.771,147.612 H 196.664 v 189.052 h 125.107 z"
           style="fill:#decdc0;fill-opacity:1;fill-rule:nonzero;stroke:none"
           id="path30" /><path
           d="m 296.531,274.084 h -70.224 v 31.658 h 70.224 z"
           style="fill:#bca99d;fill-opacity:1;fill-rule:nonzero;stroke:none"
           id="path32" /><g
           id="g34"
           transform="translate(267.7314,146.6064)"><path
             d="m 0,0 -14.135,14.135 c -0.934,0.934 -0.934,2.463 0,3.397 L 36.524,68.191 54.057,50.66 3.396,0 C 2.463,-0.934 0.934,-0.934 0,0"
             style="fill:#f0bd56;fill-opacity:1;fill-rule:nonzero;stroke:none"
             id="path36" /></g><g
           id="g38"
           transform="translate(246.6328,139.6426)"><path
             d="M 0,0 23.948,6.417 6.417,23.949 Z"
             style="fill:#decdc0;fill-opacity:1;fill-rule:nonzero;stroke:none"
             id="path40" /></g><g
           id="g42"
           transform="translate(321.7881,197.2666)"><path
             d="m 0,0 -17.532,17.531 13.996,13.996 c 1.945,1.946 5.127,1.946 7.071,0 l 10.461,-10.46 c 1.944,-1.944 1.944,-5.127 0,-7.071 z"
             style="fill:#ef5643;fill-opacity:1;fill-rule:nonzero;stroke:none"
             id="path44" /></g><g
           id="g46"
           transform="translate(244.5327,137.0391)"><path
             d="m 0,0 -0.504,0.504 c -0.365,0.364 -0.365,0.961 0,1.325 l 4.489,4.489 c 0.365,0.365 0.961,0.365 1.326,0 L 5.814,5.814 c 0.365,-0.364 0.365,-0.96 0,-1.325 L 1.325,0 C 0.96,-0.364 0.364,-0.364 0,0"
             style="fill:#6d6762;fill-opacity:1;fill-rule:nonzero;stroke:none"
             id="path48" /></g><g
           id="g50"><g
             id="g52" /><g
             id="g64"><g
               clip-path="url(#clipPath56)"
               opacity="0.199997"
               id="g62"><g
                 transform="translate(336.001,218.1162)"
                 id="g60"><path
                   d="m 0,0 -5.447,5.448 -86.273,-86.273 0.292,-0.293 c 0.343,-0.342 0.902,-0.342 1.244,0 l 3.315,3.314 21.449,5.747 -0.07,0.072 c 0.182,0.099 0.358,0.216 0.512,0.371 L -14.213,-20.85 0,-6.637 C 1.825,-4.812 1.825,-1.825 0,0"
                   style="fill:#6d6762;fill-opacity:1;fill-rule:nonzero;stroke:none"
                   id="path58" /></g></g></g></g><path
           d="m 292.214,297.108 h -58.999 v 2.302 h 58.999 z"
           style="fill:#85796f;fill-opacity:1;fill-rule:nonzero;stroke:none"
           id="path66" /><path
           d="m 292.214,288.762 h -58.999 v 2.302 h 58.999 z"
           style="fill:#85796f;fill-opacity:1;fill-rule:nonzero;stroke:none"
           id="path68" /><path
           d="m 292.214,280.416 h -58.999 v 2.302 h 58.999 z"
           style="fill:#85796f;fill-opacity:1;fill-rule:nonzero;stroke:none"
           id="path70" /></g></g></g></svg>
